<?xml version="1.0" encoding="UTF-8" standalone="no"?>
<!-- Created with Inkscape (http://www.inkscape.org/) -->

<svg
   xmlns:dc="http://purl.org/dc/elements/1.1/"
   xmlns:cc="http://creativecommons.org/ns#"
   xmlns:rdf="http://www.w3.org/1999/02/22-rdf-syntax-ns#"
   xmlns:svg="http://www.w3.org/2000/svg"
   xmlns="http://www.w3.org/2000/svg"
   xmlns:sodipodi="http://sodipodi.sourceforge.net/DTD/sodipodi-0.dtd"
   xmlns:inkscape="http://www.inkscape.org/namespaces/inkscape"
   width="50"
   height="50"
   viewBox="0 0 49.999997 49.999997"
   id="svg4595"
   version="1.1"
   inkscape:version="0.91 r13725"
   sodipodi:docname="favorite (3rd copy).svg">
  <defs
     id="defs4597" />
  <sodipodi:namedview
     id="base"
     pagecolor="#ffffff"
     bordercolor="#666666"
     borderopacity="1.0"
     inkscape:pageopacity="0.0"
     inkscape:pageshadow="2"
     inkscape:zoom="7.9195959"
     inkscape:cx="8.5273797"
     inkscape:cy="31.051568"
     inkscape:document-units="px"
     inkscape:current-layer="layer1"
     showgrid="false"
     units="px"
     showborder="true"
     inkscape:showpageshadow="false"
     inkscape:window-width="1366"
     inkscape:window-height="744"
     inkscape:window-x="0"
     inkscape:window-y="24"
     inkscape:window-maximized="1" />
  <metadata
     id="metadata4600">
    <rdf:RDF>
      <cc:Work
         rdf:about="">
        <dc:format>image/svg+xml</dc:format>
        <dc:type
           rdf:resource="http://purl.org/dc/dcmitype/StillImage" />
        <dc:title />
      </cc:Work>
    </rdf:RDF>
  </metadata>
  <g
     inkscape:label="Layer 1"
     inkscape:groupmode="layer"
     id="layer1"
     transform="translate(0,-1002.3622)">
    <path
       id="path3437"
       d="m 18.110858,1042.4523 c 14.014188,0 21.678007,-11.6101 21.678007,-21.678 0,-0.3298 -0.0068,-0.658 -0.02151,-0.9847 1.487652,-1.0756 2.780656,-2.4177 3.800505,-3.9454 -1.365154,0.6069 -2.834243,1.0153 -4.375355,1.1995 1.573014,-0.9434 2.780657,-2.4354 3.350396,-4.2141 -1.472075,0.8726 -3.102286,1.5069 -4.838046,1.8492 -1.39033,-1.4807 -3.369714,-2.4072 -5.561441,-2.4072 -4.207494,0 -7.619451,3.4123 -7.619451,7.6181 0,0.5978 0.06685,1.1794 0.197565,1.7372 -6.332304,-0.3187 -11.947328,-3.3503 -15.705214,-7.9603 -0.654328,1.1259 -1.031624,2.4337 -1.031624,3.8294 0,2.6433 1.345091,4.9769 3.390521,6.3421 -1.250013,-0.039 -2.424258,-0.382 -3.450586,-0.953 -0.0011,0.032 -0.0011,0.063 -0.0011,0.098 0,3.6899 2.626259,6.7707 6.112484,7.4689 -0.640221,0.1745 -1.313814,0.268 -2.009041,0.268 -0.490185,0 -0.967759,-0.049 -1.43195,-0.1375 0.969978,3.0274 3.782686,5.2304 7.117381,5.2919 -2.607691,2.044 -5.892665,3.2613 -9.462881,3.2613 -0.614227,0 -1.221015,-0.035 -1.817384,-0.1054 3.371953,2.1613 7.37583,3.4224 11.679156,3.4224"
       inkscape:connector-curvature="0"
       style="display:inline;fill:#ffffff;fill-opacity:1" />
  </g>
</svg>
