<?xml version="1.0" encoding="UTF-8" standalone="no"?>
<!-- Created with Inkscape (http://www.inkscape.org/) -->

<svg
   xmlns:dc="http://purl.org/dc/elements/1.1/"
   xmlns:cc="http://creativecommons.org/ns#"
   xmlns:rdf="http://www.w3.org/1999/02/22-rdf-syntax-ns#"
   xmlns:svg="http://www.w3.org/2000/svg"
   xmlns="http://www.w3.org/2000/svg"
   xmlns:sodipodi="http://sodipodi.sourceforge.net/DTD/sodipodi-0.dtd"
   xmlns:inkscape="http://www.inkscape.org/namespaces/inkscape"
   width="50"
   height="50"
   viewBox="0 0 49.999997 49.999997"
   id="svg4595"
   version="1.1"
   inkscape:version="0.91 r13725"
   sodipodi:docname="twitter.svg">
  <defs
     id="defs4597" />
  <sodipodi:namedview
     id="base"
     pagecolor="#ffffff"
     bordercolor="#666666"
     borderopacity="1.0"
     inkscape:pageopacity="0.0"
     inkscape:pageshadow="2"
     inkscape:zoom="7.9195959"
     inkscape:cx="-7.6981956"
     inkscape:cy="31.051568"
     inkscape:document-units="px"
     inkscape:current-layer="layer1"
     showgrid="false"
     units="px"
     showborder="true"
     inkscape:showpageshadow="false"
     inkscape:window-width="1366"
     inkscape:window-height="744"
     inkscape:window-x="0"
     inkscape:window-y="24"
     inkscape:window-maximized="1" />
  <metadata
     id="metadata4600">
    <rdf:RDF>
      <cc:Work
         rdf:about="">
        <dc:format>image/svg+xml</dc:format>
        <dc:type
           rdf:resource="http://purl.org/dc/dcmitype/StillImage" />
        <dc:title />
      </cc:Work>
    </rdf:RDF>
  </metadata>
  <g
     inkscape:label="Layer 1"
     inkscape:groupmode="layer"
     id="layer1"
     transform="translate(0,-1002.3622)">
    <path
       id="path3437"
       d="m 19.86769,1038.6043 c 10.440355,0 16.149783,-8.6494 16.149783,-16.1498 0,-0.2457 -0.0051,-0.4902 -0.01602,-0.7336 1.108278,-0.8013 2.071546,-1.8012 2.831318,-2.9393 -1.017019,0.4522 -2.111468,0.7564 -3.259572,0.8936 1.171871,-0.7028 2.071546,-1.8143 2.495993,-3.1394 -1.096673,0.6501 -2.311155,1.1226 -3.60427,1.3776 -1.035774,-1.1031 -2.510385,-1.7933 -4.143188,-1.7933 -3.134519,0 -5.676375,2.5421 -5.676375,5.6754 0,0.4453 0.0498,0.8786 0.147183,1.2942 -4.717469,-0.2375 -8.900576,-2.496 -11.700143,-5.9303 -0.487465,0.8387 -0.768545,1.813 -0.768545,2.8528 0,1.9692 1.002073,3.7077 2.525887,4.7248 -0.931241,-0.029 -1.806035,-0.2846 -2.570634,-0.71 -8.2e-4,0.024 -8.2e-4,0.047 -8.2e-4,0.073 0,2.7489 1.956523,5.0441 4.553707,5.5642 -0.476954,0.13 -0.978771,0.1997 -1.496704,0.1997 -0.365181,0 -0.720966,-0.036 -1.066781,-0.1025 0.722619,2.2554 2.818043,3.8966 5.30234,3.9424 -1.94269,1.5228 -4.389946,2.4296 -7.049702,2.4296 -0.457589,0 -0.909637,-0.026 -1.353923,-0.079 2.512053,1.6102 5.49488,2.5497 8.700792,2.5497"
       inkscape:connector-curvature="0"
       style="display:inline;fill:#ffffff;fill-opacity:1" />
  </g>
</svg>
